<svg xmlns="http://www.w3.org/2000/svg" version="1.1" xmlns:xlink="http://www.w3.org/1999/xlink" xmlns:svgjs="http://svgjs.dev/svgjs" width="2000" height="257" viewBox="0 0 2000 257"><g transform="matrix(1,0,0,1,-1.2121212121212466,-0.340388397519348)"><svg viewBox="0 0 396 51" data-background-color="#ffffff" preserveAspectRatio="xMidYMid meet" height="257" width="2000" xmlns="http://www.w3.org/2000/svg" xmlns:xlink="http://www.w3.org/1999/xlink"><g id="tight-bounds" transform="matrix(1,0,0,1,0.2400000000000091,0.06754789211473167)"><svg viewBox="0 0 395.52 50.86490421577056" height="50.86490421577056" width="395.52"><g><svg viewBox="0 0 484.4664896782773 62.30365491817398" height="50.86490421577056" width="395.52"><g transform="matrix(1,0,0,1,0,8.610707734711454)"><svg viewBox="0 0 395.52 45.082239448751075" height="45.082239448751075" width="395.52"><g id="textblocktransform"><svg viewBox="0 0 395.52 45.082239448751075" height="45.082239448751075" width="395.52" id="textblock"><g><svg viewBox="0 0 395.52 45.082239448751075" height="45.082239448751075" width="395.52"><g transform="matrix(1,0,0,1,0,0)"><svg width="395.52" viewBox="2.15 -38.85 348.27000000000004 39.7" height="45.082239448751075" data-palette-color="#0b2447"><path d="M12.7 0.5L12.7 0.5Q9.75 0.5 7.35-0.73 4.95-1.95 3.55-4.4 2.15-6.85 2.15-10.45L2.15-10.45Q2.15-14 3.63-16.55 5.1-19.1 7.53-20.48 9.95-21.85 12.8-21.85L12.8-21.85Q15.8-21.85 17.73-20.58 19.65-19.3 20.75-17.6L20.75-17.6 20.4-16.8 20.9-20.95 25.65-20.95 25.65 0 20.5 0 20.5-5.25 21.05-4Q20.85-3.6 20.2-2.88 19.55-2.15 18.48-1.35 17.4-0.55 15.98-0.03 14.55 0.5 12.7 0.5ZM14.1-3.7L14.1-3.7Q15.75-3.7 17.05-4.3 18.35-4.9 19.25-6 20.15-7.1 20.5-8.6L20.5-8.6 20.5-12.95Q20.1-14.35 19.15-15.38 18.2-16.4 16.88-17 15.55-17.6 13.95-17.6L13.95-17.6Q12.15-17.6 10.65-16.73 9.15-15.85 8.25-14.3 7.35-12.75 7.35-10.7L7.35-10.7Q7.35-8.75 8.28-7.15 9.2-5.55 10.75-4.63 12.3-3.7 14.1-3.7ZM33.55 0L33.55-38.85 38.7-38.85 38.7 0 33.55 0ZM46.55 0L46.55-20.95 51.7-20.95 51.7 0 46.55 0ZM46.24-28.45L46.24-28.45Q46.24-29.65 47.2-30.45 48.14-31.25 49.24-31.25L49.24-31.25Q50.39-31.25 51.3-30.45 52.2-29.65 52.2-28.45L52.2-28.45Q52.2-27.25 51.3-26.48 50.39-25.7 49.24-25.7L49.24-25.7Q48.14-25.7 47.2-26.48 46.24-27.25 46.24-28.45ZM66.44 0L61.29 0 61.29-16.4 57.74-16.4 57.74-20.95 61.29-20.95 61.29-29.45Q61.29-33.95 63.44-36.4 65.59-38.85 69.69-38.85L69.69-38.85Q70.79-38.85 72.14-38.53 73.49-38.2 74.54-37.5L74.54-37.5 72.39-33.75Q71.94-34.25 71.37-34.45 70.79-34.65 70.19-34.65L70.19-34.65Q68.44-34.65 67.44-33.45 66.44-32.25 66.44-29.35L66.44-29.35 66.44-20.95 73.04-20.95 73.04-16.4 66.44-16.4 66.44 0ZM94.99-20.95L99.59-20.95 100.04-16.45 99.84-16.8Q101.04-19.15 103.14-20.48 105.24-21.8 107.99-21.8L107.99-21.8Q109.69-21.8 111.06-21.25 112.44-20.7 113.34-19.7 114.24-18.7 114.49-17.2L114.49-17.2 114.24-17.05Q115.49-19.25 117.56-20.53 119.64-21.8 121.99-21.8L121.99-21.8Q125.04-21.8 126.86-20.05 128.69-18.3 128.74-15.55L128.74-15.55 128.74 0 123.64 0 123.64-13.6Q123.59-15.15 122.91-16.2 122.24-17.25 120.54-17.35L120.54-17.35Q118.74-17.35 117.36-16.25 115.99-15.15 115.24-13.4 114.49-11.65 114.44-9.65L114.44-9.65 114.44 0 109.29 0 109.29-13.6Q109.24-15.15 108.54-16.2 107.84-17.25 106.09-17.35L106.09-17.35Q104.29-17.35 102.94-16.25 101.59-15.15 100.86-13.38 100.14-11.6 100.14-9.65L100.14-9.65 100.14 0 94.99 0 94.99-20.95ZM145.38 0.5L145.38 0.5Q142.44 0.5 140.03-0.73 137.63-1.95 136.24-4.4 134.84-6.85 134.84-10.45L134.84-10.45Q134.84-14 136.31-16.55 137.78-19.1 140.21-20.48 142.63-21.85 145.49-21.85L145.49-21.85Q148.49-21.85 150.41-20.58 152.34-19.3 153.44-17.6L153.44-17.6 153.09-16.8 153.59-20.95 158.34-20.95 158.34 0 153.19 0 153.19-5.25 153.74-4Q153.53-3.6 152.88-2.88 152.24-2.15 151.16-1.35 150.09-0.55 148.66-0.03 147.24 0.5 145.38 0.5ZM146.78-3.7L146.78-3.7Q148.44-3.7 149.74-4.3 151.03-4.9 151.94-6 152.84-7.1 153.19-8.6L153.19-8.6 153.19-12.95Q152.78-14.35 151.84-15.38 150.88-16.4 149.56-17 148.24-17.6 146.63-17.6L146.63-17.6Q144.84-17.6 143.34-16.73 141.84-15.85 140.94-14.3 140.03-12.75 140.03-10.7L140.03-10.7Q140.03-8.75 140.96-7.15 141.88-5.55 143.44-4.63 144.99-3.7 146.78-3.7ZM172.93 0.85L172.93 0.85Q170.03 0.85 168.18-0.9 166.33-2.65 166.23-5.4L166.23-5.4 166.23-20.95 171.38-20.95 171.38-7.25Q171.48-5.65 172.31-4.63 173.13-3.6 174.98-3.55L174.98-3.55Q176.68-3.55 178.01-4.58 179.33-5.6 180.11-7.38 180.88-9.15 180.88-11.45L180.88-11.45 180.88-20.95 186.03-20.95 186.03 0 181.38 0 180.98-4.85 181.18-4.05Q180.53-2.65 179.33-1.53 178.13-0.4 176.48 0.23 174.83 0.85 172.93 0.85ZM193.93 0L193.93-38.85 199.08-38.85 199.08 0 193.93 0ZM206.93 0L206.93-20.95 212.08-20.95 212.08 0 206.93 0ZM206.63-28.45L206.63-28.45Q206.63-29.65 207.58-30.45 208.53-31.25 209.63-31.25L209.63-31.25Q210.78-31.25 211.68-30.45 212.58-29.65 212.58-28.45L212.58-28.45Q212.58-27.25 211.68-26.48 210.78-25.7 209.63-25.7L209.63-25.7Q208.53-25.7 207.58-26.48 206.63-27.25 206.63-28.45ZM228.48 0.5L228.48 0.5Q225.53 0.5 223.18-0.88 220.83-2.25 219.48-4.8 218.13-7.35 218.13-10.75L218.13-10.75Q218.13-14.25 219.58-16.73 221.03-19.2 223.5-20.53 225.98-21.85 229.08-21.85L229.08-21.85Q231.48-21.85 233.65-20.88 235.83-19.9 237.03-18.15L237.03-18.15 236.88-16.4 236.88-38.85 241.98-38.85 241.98 0 236.83 0 236.83-4.95 237.38-3.6Q235.83-1.85 233.58-0.68 231.33 0.5 228.48 0.5ZM230.08-3.85L230.08-3.85Q231.83-3.85 233.18-4.45 234.53-5.05 235.48-6.18 236.43-7.3 236.83-8.8L236.83-8.8 236.83-13Q236.48-14.4 235.5-15.48 234.53-16.55 233.13-17.15 231.73-17.75 230.08-17.75L230.08-17.75Q228.23-17.75 226.7-16.88 225.18-16 224.25-14.45 223.33-12.9 223.33-10.85L223.33-10.85Q223.33-8.9 224.25-7.3 225.18-5.7 226.73-4.78 228.28-3.85 230.08-3.85ZM258.62 0.5L258.62 0.5Q255.67 0.5 253.27-0.73 250.87-1.95 249.47-4.4 248.07-6.85 248.07-10.45L248.07-10.45Q248.07-14 249.55-16.55 251.02-19.1 253.45-20.48 255.87-21.85 258.72-21.85L258.72-21.85Q261.72-21.85 263.65-20.58 265.57-19.3 266.67-17.6L266.67-17.6 266.32-16.8 266.82-20.95 271.57-20.95 271.57 0 266.42 0 266.42-5.25 266.97-4Q266.77-3.6 266.12-2.88 265.47-2.15 264.4-1.35 263.32-0.55 261.9-0.03 260.47 0.5 258.62 0.5ZM260.02-3.7L260.02-3.7Q261.67-3.7 262.97-4.3 264.27-4.9 265.17-6 266.07-7.1 266.42-8.6L266.42-8.6 266.42-12.95Q266.02-14.35 265.07-15.38 264.12-16.4 262.8-17 261.47-17.6 259.87-17.6L259.87-17.6Q258.07-17.6 256.57-16.73 255.07-15.85 254.17-14.3 253.27-12.75 253.27-10.7L253.27-10.7Q253.27-8.75 254.2-7.15 255.12-5.55 256.67-4.63 258.22-3.7 260.02-3.7ZM279.47-20.95L284.07-20.95 284.52-16.15 284.32-16.8Q285.37-19.05 287.57-20.43 289.77-21.8 292.77-21.8L292.77-21.8Q295.72-21.8 297.65-20.05 299.57-18.3 299.62-15.5L299.62-15.5 299.62 0 294.47 0 294.47-13.7Q294.42-15.3 293.52-16.32 292.62-17.35 290.72-17.4L290.72-17.4Q289.02-17.4 287.62-16.38 286.22-15.35 285.42-13.6 284.62-11.85 284.62-9.55L284.62-9.55 284.62 0 279.47 0 279.47-20.95ZM316.27 0.5L316.27 0.5Q313.32 0.5 310.92-0.73 308.52-1.95 307.12-4.4 305.72-6.85 305.72-10.45L305.72-10.45Q305.72-14 307.19-16.55 308.67-19.1 311.09-20.48 313.52-21.85 316.37-21.85L316.37-21.85Q319.37-21.85 321.29-20.58 323.22-19.3 324.32-17.6L324.32-17.6 323.97-16.8 324.47-20.95 329.22-20.95 329.22 0 324.07 0 324.07-5.25 324.62-4Q324.42-3.6 323.77-2.88 323.12-2.15 322.04-1.35 320.97-0.55 319.54-0.03 318.12 0.5 316.27 0.5ZM317.67-3.7L317.67-3.7Q319.32-3.7 320.62-4.3 321.92-4.9 322.82-6 323.72-7.1 324.07-8.6L324.07-8.6 324.07-12.95Q323.67-14.35 322.72-15.38 321.77-16.4 320.44-17 319.12-17.6 317.52-17.6L317.52-17.6Q315.72-17.6 314.22-16.73 312.72-15.85 311.82-14.3 310.92-12.75 310.92-10.7L310.92-10.7Q310.92-8.75 311.84-7.15 312.77-5.55 314.32-4.63 315.87-3.7 317.67-3.7ZM337.12-20.95L341.72-20.95 342.22-14.95 341.97-15.75Q342.82-17.65 344.37-19 345.92-20.35 347.59-21.08 349.27-21.8 350.42-21.8L350.42-21.8 350.17-16.7Q347.77-16.85 345.99-15.8 344.22-14.75 343.22-13 342.22-11.25 342.22-9.25L342.22-9.25 342.22 0 337.12 0 337.12-20.95Z" opacity="1" transform="matrix(1,0,0,1,0,0)" fill="#ffffff" class="wordmark-text-0" data-fill-palette-color="primary" id="text-0"></path></svg></g></svg></g></svg></g></svg></g><g transform="matrix(1,0,0,1,406.16283476010335,0)"><svg viewBox="0 0 78.30365491817398 62.30365491817398" height="62.30365491817398" width="78.30365491817398"><g><svg xmlns="http://www.w3.org/2000/svg" xmlns:xlink="http://www.w3.org/1999/xlink" version="1.1" x="8" y="0" viewBox="0 0 62 62" style="enable-background:new 0 0 62 62;" xml:space="preserve" height="62.30365491817398" width="62.30365491817398" class="icon-icon-0" data-fill-palette-color="accent" id="icon-0"><g fill="#0b2447" data-fill-palette-color="accent"><circle cx="11" cy="43" r="1.0" fill="#ffffff" data-fill-palette-color="accent"></circle><circle cx="15" cy="43" r="1.0" fill="#ffffff" data-fill-palette-color="accent"></circle><polygon points="41,42.943 48.766,30 46,30 46,10 44,10 44,32 45.234,32 41,39.057 36.766,32 38,32 38,24 36,24 36,30 33.234,30     " fill="#ffffff" data-fill-palette-color="accent"></polygon><rect x="36" y="12" width="2" height="10" fill="#ffffff" data-fill-palette-color="accent"></rect><path d="M60 22H48v2h12v22H22V24h12v-2h-4v-3.54c1.224-1.099 2-2.688 2-4.46 0-3.309-2.691-6-6-6-0.066 0-0.133 0.001-0.2 0.004C24.872 3.376 20.825 0 16 0S7.128 3.376 6.2 8.004C6.133 8.001 6.066 8 6 8c-3.309 0-6 2.691-6 6 0 1.771 0.776 3.36 2 4.46V62h52v-6h-8v-2h14c1.103 0 2-0.897 2-2V24C62 22.897 61.103 22 60 22zM22 54h2v2H12v-8h8v4C20 53.103 20.897 54 22 54zM10 46v10H8V20h2v10h10v2H10v8h10v6H10zM20 38h-8v-4h8V38zM20 28h-8v-8h8V28zM22 20h2v2h-2V20zM28 22h-2v-2c0.702 0 1.373-0.128 2-0.35V22zM6 10c0.272 0 0.553 0.03 0.835 0.091l1.096 0.235L8.04 9.211C8.442 5.1 11.864 2 16 2s7.558 3.1 7.96 7.211l0.109 1.115 1.096-0.235C27.731 9.538 30 11.521 30 14c0 2.206-1.794 4-4 4H6c-2.206 0-4-1.794-4-4S3.794 10 6 10zM4 19.65C4.627 19.872 5.298 20 6 20v38h20v-4h2v6H4V19.65zM30 56v-2h6v2H30zM52 60H30v-2h22V60zM44 56h-6v-2h6V56zM56 52v-2h-2v2h-2v-2h-2v2h-2v-2h-2v2H22v-4h38v4H56z" fill="#ffffff" data-fill-palette-color="accent"></path><rect x="44" width="2" height="8" fill="#ffffff" data-fill-palette-color="accent"></rect></g></svg></g></svg></g></svg></g><defs></defs></svg><rect width="395.52" height="50.86490421577056" fill="none" stroke="none" visibility="hidden"></rect></g></svg></g></svg>